<svg width="106" height="106" viewBox="0 0 106 106" fill="none" xmlns="http://www.w3.org/2000/svg">
<path d="M17.9714 57.4167H0V48.5833H17.9714C17.7903 50.032 17.6667 51.5027 17.6667 53C17.6667 54.4972 17.7903 55.968 17.9714 57.4167ZM31.3716 25.122L18.6472 12.3976L12.402 18.6428L25.1264 31.3672C26.9417 29.0308 29.0352 26.9372 31.3716 25.122V25.122ZM80.878 31.3672L93.6024 18.6428L87.3572 12.3976L74.6328 25.122C76.9648 26.9372 79.0583 29.0352 80.878 31.3672V31.3672ZM53 17.6667C54.4972 17.6667 55.968 17.7903 57.4167 17.9714V0H48.5833V17.9714C50.032 17.7903 51.5027 17.6667 53 17.6667V17.6667ZM53 88.3333C51.5027 88.3333 50.032 88.2097 48.5833 88.0286V106H57.4167V88.0286C55.968 88.2097 54.4972 88.3333 53 88.3333ZM88.0286 48.5833C88.2097 50.032 88.3333 51.5027 88.3333 53C88.3333 54.4972 88.2097 55.968 88.0286 57.4167H106V48.5833H88.0286ZM74.6328 80.878L87.3528 93.598L93.6024 87.3528L80.8824 74.6328C79.0627 76.9648 76.9693 79.0583 74.6328 80.878ZM25.122 74.6284L12.402 87.3484L18.6472 93.5936L31.3672 80.8736C29.0352 79.0583 26.9372 76.9648 25.122 74.6284ZM53 26.5C38.3632 26.5 26.5 38.3632 26.5 53C26.5 67.6368 38.3632 79.5 53 79.5C67.6368 79.5 79.5 67.6368 79.5 53C79.5 38.3632 67.6368 26.5 53 26.5V26.5Z" fill="url(#paint0_linear)"/>
<defs>
<linearGradient id="paint0_linear" x1="106" y1="2" x2="25.5" y2="106" gradientUnits="userSpaceOnUse">
<stop offset="0.276042" stop-color="#009AD8"/>
<stop offset="0.880208" stop-color="#004A68"/>
</linearGradient>
</defs>
</svg>
