<svg width="106" height="106" viewBox="0 0 106 106" fill="none" xmlns="http://www.w3.org/2000/svg">
<g clip-path="url(#clip0)">
<path d="M53 48.5789C59.3467 50.5134 64.3155 55.4866 66.2456 61.8333C68.1889 55.4866 73.1577 50.5178 79.5 48.5833C73.1577 46.6444 68.1889 41.6801 66.2456 35.3333C64.3155 41.6757 59.3467 46.6444 53 48.5789ZM88.3377 48.5833C92.5689 49.8774 95.877 53.1855 97.1711 57.4211C98.4563 53.1855 101.773 49.873 106 48.5833C101.773 47.2937 98.4607 43.9812 97.1667 39.75C95.8726 43.9812 92.5645 47.2937 88.3377 48.5833ZM83.9211 8.83333C81.991 15.1801 77.0178 20.1488 70.6799 22.0877C77.0311 24.0311 81.991 28.9954 83.9343 35.3466C85.8644 28.9954 90.8376 24.0267 97.1667 22.0877C90.8376 20.1577 85.8644 15.1801 83.9211 8.83333V8.83333ZM53 106C23.7749 106 0 82.2251 0 53C0 23.7749 23.7749 0 53 0C61.3652 0 69.0325 2.19508 76.7175 5.20725C63.6972 7.43325 35.3333 19.6321 35.3333 53C35.3333 85.9218 61.4668 98.0853 76.7175 100.793C70.0925 104.529 61.3652 106 53 106V106Z" fill="url(#paint0_linear)"/>
</g>
<defs>
<linearGradient id="paint0_linear" x1="106" y1="0" x2="27.5" y2="106" gradientUnits="userSpaceOnUse">
<stop offset="0.328125" stop-color="#009AD8"/>
<stop offset="1" stop-color="#004A68"/>
</linearGradient>
<clipPath id="clip0">
<rect width="106" height="106" fill="white"/>
</clipPath>
</defs>
</svg>
