<svg width="106" height="106" viewBox="0 0 106 106" fill="none" xmlns="http://www.w3.org/2000/svg">
<path d="M10.5823 53H0V44.1666H10.5823V53ZM44.1667 24.4771V8.83331H35.3333V24.4771H44.1667ZM22.9976 28.3461L13.4753 18.8238L7.23008 25.069L16.7524 34.5913L22.9976 28.3461V28.3461ZM64.7837 17.7638L55.4424 27.1006L61.6876 33.3458L71.0288 24.009L64.7837 17.7638V17.7638ZM13.1087 65.9364L3.40083 74.412L9.15575 81.1121L18.8636 72.6365L13.1087 65.9364V65.9364ZM106 78.2722C106 88.7043 97.3875 97.1667 86.7698 97.1667H41.3135C30.6958 97.1667 22.0833 88.7043 22.0833 78.2722C22.0833 74.8713 23.0152 71.6913 24.6185 68.9397C20.3608 64.9338 17.6667 59.3114 17.6667 53C17.6667 40.8011 27.5512 30.9166 39.75 30.9166C45.6197 30.9166 50.8932 33.2486 54.8285 36.994C57.6949 35.934 60.791 35.3333 64.0417 35.3333C78.0469 35.3333 89.4507 46.1232 90.1927 59.6956C99.1762 61.2812 106 68.9927 106 78.2722ZM26.5 53C26.5 56.7983 28.1342 60.1903 30.7179 62.593C32.86 61.1973 35.2627 60.1594 37.8906 59.6956C38.2793 52.5848 41.6138 46.2601 46.6974 41.8258C44.6657 40.5538 42.3205 39.75 39.75 39.75C32.4448 39.75 26.5 45.6948 26.5 53V53Z" fill="url(#paint0_linear)"/>
<defs>
<linearGradient id="paint0_linear" x1="106" y1="8.99994" x2="26.5" y2="96.9999" gradientUnits="userSpaceOnUse">
<stop offset="0.3125" stop-color="#009AD8"/>
<stop offset="1" stop-color="#004A68"/>
</linearGradient>
</defs>
</svg>
