<svg width="106" height="106" viewBox="0 0 106 106" fill="none" xmlns="http://www.w3.org/2000/svg">
<g clip-path="url(#clip0)">
<path d="M90.1972 50.8623C89.4508 37.2899 78.0514 26.5 64.0417 26.5C58.6136 26.5 53.5831 28.1342 49.4093 30.9123C44.8116 23.0064 36.2741 17.6667 26.4868 17.6667C24.4198 17.6667 22.3042 17.9052 20.1533 18.4043C26.1026 35.3334 18.4617 46.7416 5.40013e-05 44.0739C-0.026446 57.4432 9.70347 68.2243 22.1717 70.2868C22.6311 80.3171 30.9874 88.3333 41.3136 88.3333H86.7655C97.392 88.3333 106 79.871 106 69.4388C106 60.1594 99.1763 52.4479 90.1972 50.8623V50.8623ZM23.8766 61.6346C18.2011 60.7866 13.3472 57.2312 10.7856 52.2492C23.6646 51.7236 33.1471 39.6793 30.4441 26.9461C36.0047 28.2269 40.523 32.1578 42.7136 37.3076C39.9091 41.1722 38.1601 45.8229 37.8818 50.8623C31.6146 51.9709 26.4515 56.1005 23.8766 61.6346V61.6346Z" fill="url(#paint0_linear)"/>
</g>
<defs>
<linearGradient id="paint0_linear" x1="106" y1="18.0001" x2="27.5" y2="88.0001" gradientUnits="userSpaceOnUse">
<stop offset="0.28125" stop-color="#009AD8"/>
<stop offset="1" stop-color="#004A68"/>
</linearGradient>
<clipPath id="clip0">
<rect width="106" height="106" fill="white"/>
</clipPath>
</defs>
</svg>
