<svg width="106" height="106" viewBox="0 0 106 106" fill="none" xmlns="http://www.w3.org/2000/svg">
<path d="M90.1972 51.1957C89.411 36.9166 76.8102 25.6762 61.7892 26.9393C56.9882 21.4671 49.8951 18 41.9583 18C27.9487 18 16.5448 28.7899 15.8028 42.3623C6.82375 43.9479 0 51.6594 0 60.9388C0 71.371 8.60808 79.8333 19.2302 79.8333H25.0867C28.4919 85.1245 34.4677 88.6667 41.3135 88.6667H86.7654C97.3919 88.6667 106 80.2043 106 69.7722C106 60.4927 99.1762 52.7812 90.1972 51.1957ZM22.2026 71H19.2302C13.5017 71 8.83333 66.4862 8.83333 60.9388C8.83333 51.5843 18.126 49.4687 24.2387 49.8442C24.0178 43.8552 24.8438 26.8333 41.9583 26.8333C46.2292 26.8333 49.5285 27.9375 52.0725 29.6777C44.0209 33.7498 38.3985 41.8058 37.8862 51.1957C28.9557 52.7768 21.5577 60.5899 22.2026 71Z" fill="url(#paint0_linear)"/>
<defs>
<linearGradient id="paint0_linear" x1="106" y1="18" x2="26" y2="89" gradientUnits="userSpaceOnUse">
<stop offset="0.234375" stop-color="#009AD8"/>
<stop offset="1" stop-color="#004D6C"/>
<stop offset="1" stop-color="#004A68"/>
</linearGradient>
</defs>
</svg>
