<svg width="106" height="106" viewBox="0 0 106 106" fill="none" xmlns="http://www.w3.org/2000/svg">
<path d="M90.1972 33.1957C89.411 18.9166 76.8102 7.67617 61.7892 8.93933C56.9882 3.46708 49.8951 0 41.9583 0C27.9487 0 16.5448 10.7899 15.8028 24.3623C6.82375 25.9479 0 33.6594 0 42.9388C0 53.371 8.60808 61.8333 19.2302 61.8333H25.0867C28.4919 67.1245 34.4677 70.6667 41.3135 70.6667H86.7654C97.3919 70.6667 106 62.2043 106 51.7722C106 42.4927 99.1763 34.7812 90.1972 33.1957V33.1957ZM22.2026 53H19.2302C13.5017 53 8.83333 48.4862 8.83333 42.9388C8.83333 33.5843 18.126 31.4687 24.2387 31.8442C24.0178 25.8552 24.8437 8.83333 41.9583 8.83333C46.2292 8.83333 49.5285 9.9375 52.0725 11.6777C44.0209 15.7498 38.3985 23.8058 37.8862 33.1957C28.9557 34.7768 21.5577 42.5899 22.2026 53V53ZM30.3381 91.4824L24.1106 85.2549L34.2822 75.0833L40.5097 81.3108L30.3381 91.4824V91.4824ZM15.7631 106L9.53558 99.8299L19.7072 89.6583L25.9347 95.8858L15.7631 106ZM52.2138 91.4824L45.9863 85.2549L56.1579 75.0833L62.3854 81.3108L52.2138 91.4824ZM37.6388 106L31.4113 99.8299L41.5829 89.6583L47.8104 95.8858L37.6388 106ZM73.7451 91.4824L67.5176 85.2549L77.6892 75.0833L83.9167 81.3108L73.7451 91.4824ZM59.1657 106L52.9382 99.8299L63.1053 89.6583L69.3328 95.8858L59.1657 106Z" fill="url(#paint0_linear)"/>
<defs>
<linearGradient id="paint0_linear" x1="106" y1="0" x2="17.5" y2="106" gradientUnits="userSpaceOnUse">
<stop offset="0.154192" stop-color="#009AD8"/>
<stop offset="1" stop-color="#004D6C"/>
<stop offset="1" stop-color="#004A68"/>
</linearGradient>
</defs>
</svg>
