<svg width="106" height="106" viewBox="0 0 106 106" fill="none" xmlns="http://www.w3.org/2000/svg">
<path d="M10.5823 39.75H0V30.9167H10.5823V39.75ZM44.1667 11.2272V0H35.3333V11.2272H44.1667ZM22.9976 15.0962L14.787 6.88558L8.54183 13.1307L16.7524 21.3413L22.9976 15.0962V15.0962ZM63.7281 5.57383L55.4468 13.8551L61.692 20.1002L69.9732 11.819L63.7281 5.57383V5.57383ZM13.1131 52.6864L4.04567 60.5172L9.80058 67.2172L18.868 59.3865L13.1131 52.6864ZM106 65.0222C106 75.4543 97.3919 83.9167 86.7698 83.9167H41.3135C30.6914 83.9167 22.0833 75.4543 22.0833 65.0222C22.0833 61.6213 23.0152 58.4413 24.6185 55.6897C20.3564 51.6838 17.6667 46.0614 17.6667 39.75C17.6667 27.5512 27.5512 17.6667 39.75 17.6667C45.6153 17.6667 50.8932 19.9987 54.8285 23.744C57.6905 22.684 60.791 22.0833 64.0417 22.0833C78.0513 22.0833 89.4508 32.8732 90.1972 46.4457C99.1763 48.0312 106 55.7427 106 65.0222ZM26.5 39.75C26.5 43.5483 28.1342 46.9403 30.7179 49.343C32.8556 47.9473 35.2627 46.9094 37.8862 46.4457C38.2792 39.3348 41.6138 33.0102 46.693 28.5758C44.6657 27.3038 42.3205 26.5 39.75 26.5C32.4448 26.5 26.5 32.4448 26.5 39.75ZM28.355 106L22.1275 99.7725L33.5667 88.3333L39.7942 94.5608L28.355 106ZM61.6699 94.5608L55.4424 88.3333L44.0032 99.7725L50.2307 106L61.6699 94.5608ZM83.2012 94.5608L76.9737 88.3333L65.5345 99.7725L71.762 106L83.2012 94.5608Z" fill="url(#paint0_linear)"/>
<defs>
<linearGradient id="paint0_linear" x1="106" y1="4.82798e-06" x2="25" y2="106" gradientUnits="userSpaceOnUse">
<stop offset="0.234375" stop-color="#009AD8"/>
<stop offset="1" stop-color="#004D6C"/>
<stop offset="1" stop-color="#004A68"/>
</linearGradient>
</defs>
</svg>
