<svg width="106" height="106" viewBox="0 0 106 106" fill="none" xmlns="http://www.w3.org/2000/svg">
<g clip-path="url(#clip0)">
<path d="M90.1972 42.029C89.4508 28.4566 78.0514 17.6666 64.0417 17.6666C58.6136 17.6666 53.5831 19.3008 49.4093 22.0789C44.8116 14.1731 36.2741 8.83331 26.4868 8.83331C24.4198 8.83331 22.3042 9.07181 20.1533 9.5709C26.1026 26.5 18.4617 37.9082 5.40013e-05 35.2406C-0.026446 48.6098 9.70347 59.3909 22.1717 61.4535C22.6311 71.4837 30.9874 79.5 41.3136 79.5H86.7655C97.392 79.5 106 71.0376 106 60.6055C106 51.3261 99.1763 43.6146 90.1972 42.029V42.029ZM23.8766 52.8012C18.2011 51.9532 13.3472 48.3978 10.7856 43.4158C23.6646 42.8858 33.1516 30.846 30.4486 18.1127C36.0091 19.3936 40.5274 23.3244 42.7181 28.4742C39.9135 32.3388 38.1645 36.9896 37.8862 42.029C31.6146 43.1376 26.4515 47.2671 23.8766 52.8012ZM28.3551 101.583L22.1276 95.3558L33.5667 83.9166L39.7942 90.1441L28.3551 101.583V101.583ZM61.67 90.1441L55.4425 83.9166L44.0033 95.3558L50.2308 101.583L61.67 90.1441ZM83.2012 90.1441L76.9737 83.9166L65.5346 95.3558L71.7621 101.583L83.2012 90.1441Z" fill="url(#paint0_linear)"/>
</g>
<defs>
<linearGradient id="paint0_linear" x1="106" y1="8.99995" x2="23.5" y2="102" gradientUnits="userSpaceOnUse">
<stop offset="0.208333" stop-color="#009AD8"/>
<stop offset="1" stop-color="#004D6C"/>
<stop offset="1" stop-color="#004A68"/>
</linearGradient>
<clipPath id="clip0">
<rect width="106" height="106" fill="white"/>
</clipPath>
</defs>
</svg>
