<svg width="106" height="106" viewBox="0 0 106 106" fill="none" xmlns="http://www.w3.org/2000/svg">
<g clip-path="url(#clip0)">
<path d="M90.1972 33.1957C89.411 18.9211 76.8102 7.68064 61.7892 8.94381C56.9882 3.46714 49.8951 6.10352e-05 41.9583 6.10352e-05C27.9487 6.10352e-05 16.5448 10.79 15.8028 24.3624C6.82375 25.948 0 33.6595 0 42.9389C0 53.3711 8.60808 61.8334 19.2302 61.8334H25.0867C28.4919 67.1246 34.4677 70.6667 41.3135 70.6667H47.4129L56.5907 50.7917H84.5394L75.5647 70.6667H86.761C97.3919 70.6667 106 62.2044 106 51.7722C106 42.4928 99.1763 34.7813 90.1972 33.1957V33.1957ZM22.2026 53.0001H19.2302C13.5017 53.0001 8.83333 48.4906 8.83333 42.9389C8.83333 33.5844 18.126 31.4688 24.2387 31.8398C24.0178 25.8552 24.8437 8.83339 41.9583 8.83339C46.2292 8.83339 49.5285 9.93756 52.0725 11.6821C44.0209 15.7499 38.3985 23.8059 37.8862 33.1957C28.9557 34.7725 21.5577 42.59 22.2026 53.0001V53.0001ZM66.25 75.0834H79.5L53 106L61.8333 83.9167H48.5833L60.9588 57.4167H74.3943L66.25 75.0834Z" fill="url(#paint0_linear)"/>
</g>
<defs>
<linearGradient id="paint0_linear" x1="106" y1="-6.27637e-05" x2="25.5" y2="106" gradientUnits="userSpaceOnUse">
<stop offset="0.166667" stop-color="#009AD8"/>
<stop offset="1" stop-color="#004D6C"/>
<stop offset="1" stop-color="#004A68"/>
</linearGradient>
<clipPath id="clip0">
<rect width="106" height="106" fill="white"/>
</clipPath>
</defs>
</svg>
