<svg width="106" height="106" viewBox="0 0 106 106" fill="none" xmlns="http://www.w3.org/2000/svg">
<path d="M90.1972 33.1957C89.411 18.921 76.8102 7.68058 61.7892 8.94375C56.9882 3.46708 49.8951 0 41.9583 0C27.9487 0 16.5448 10.7899 15.8028 24.3623C6.82375 25.9479 0 33.6594 0 42.9388C0 53.371 8.60808 61.8333 19.2302 61.8333H25.0867C28.4919 67.1245 34.4677 70.6667 41.3135 70.6667H47.4129L56.5907 50.7917H84.5394L75.5647 70.6667H86.761C97.3919 70.6667 106 62.2043 106 51.7722C106 42.4927 99.1763 34.7812 90.1972 33.1957V33.1957ZM22.2026 53H19.2302C13.5017 53 8.83333 48.4906 8.83333 42.9388C8.83333 33.5843 18.126 31.4687 24.2387 31.8397C24.0178 25.8552 24.8437 8.83333 41.9583 8.83333C46.2292 8.83333 49.5285 9.9375 52.0725 11.6821C44.0209 15.7498 38.3985 23.8058 37.8862 33.1957C28.9557 34.7724 21.5577 42.5899 22.2026 53V53ZM66.25 75.0833H79.5L53 106L61.8333 83.9167H48.5833L60.9588 57.4167H74.3943L66.25 75.0833Z" fill="url(#paint0_linear)"/>
<defs>
<linearGradient id="paint0_linear" x1="106" y1="-4.55975e-06" x2="29.5" y2="106" gradientUnits="userSpaceOnUse">
<stop offset="0.177083" stop-color="#009AD8"/>
<stop offset="1" stop-color="#004D6C"/>
<stop offset="1" stop-color="#004A68"/>
</linearGradient>
</defs>
</svg>
