<svg width="106" height="106" viewBox="0 0 106 106" fill="none" xmlns="http://www.w3.org/2000/svg">
<path d="M97.5757 74.559L86.8093 68.3431L96.1394 62.8415C97.8602 61.8268 98.4327 59.6092 97.418 57.8883C96.4032 56.168 94.1861 55.5955 92.4647 56.6098L79.6125 64.1881L60.2342 52.9998L79.6091 41.8133L92.4652 49.3907C93.0416 49.7307 93.6744 49.8918 94.2984 49.8918C95.537 49.8918 96.7432 49.2552 97.418 48.1107C98.4322 46.3899 97.8593 44.1723 96.1384 43.1575L86.8069 37.6579L97.5757 31.4405C99.3057 30.4417 99.8984 28.2294 98.8996 26.4994C97.9007 24.7689 95.6884 24.1762 93.9584 25.1755L83.1921 31.3918L83.0942 20.5589C83.0763 18.5612 81.4375 16.947 79.4446 16.9745C77.4469 16.9923 75.8419 18.6264 75.8602 20.624L75.9947 35.5468L56.6175 46.7347V24.3609L69.6091 17.0184C71.3483 16.0355 71.9613 13.8289 70.9784 12.0893C69.9954 10.3501 67.7884 9.73664 66.0493 10.72L56.6175 16.0509V3.61724C56.6175 1.61956 54.9979 0 53.0002 0C51.0025 0 49.383 1.61956 49.383 3.61724V16.0509L39.9512 10.7205C38.211 9.73712 36.0055 10.3501 35.0221 12.0898C34.0391 13.8289 34.6521 16.0359 36.3913 17.0189L49.3825 24.3614V46.7347L30.0052 35.5468L30.1398 20.624C30.1581 18.6264 28.553 16.9923 26.5553 16.9745C26.5442 16.9745 26.5336 16.9745 26.522 16.9745C24.5398 16.9745 22.9236 18.5723 22.9058 20.5594L22.8079 31.3918L12.0415 25.1755C10.3115 24.1762 8.09922 24.7694 7.10038 26.4994C6.10154 28.2294 6.69428 30.4417 8.42429 31.4405L19.1926 37.6579L9.85961 43.1585C8.13877 44.1727 7.5658 46.3903 8.58007 48.1117C9.2548 49.2562 10.461 49.8928 11.7001 49.8928C12.3242 49.8928 12.9564 49.7312 13.5333 49.3917L26.3909 41.8143L45.7662 53.0007L26.3875 64.1891L13.5333 56.6093C11.8134 55.595 9.59482 56.167 8.58007 57.8879C7.56531 59.6087 8.1378 61.8263 9.85864 62.8406L19.1901 68.3426L8.4238 74.5585C6.6938 75.5573 6.10106 77.7696 7.0999 79.4996C7.76981 80.6601 8.98568 81.3087 10.2358 81.3087C10.8493 81.3087 11.4714 81.1525 12.041 80.8235L22.8074 74.6072L22.9053 85.4406C22.9231 87.4272 24.5393 89.0255 26.5216 89.0255C26.5327 89.0255 26.5437 89.0255 26.5548 89.025C28.5525 89.0072 30.1576 87.3732 30.1393 85.3755L30.0047 70.4522L49.3825 59.2643V81.6386L36.3913 88.9811C34.6521 89.9641 34.0391 92.1706 35.0221 93.9102C35.6872 95.087 36.9127 95.7483 38.1744 95.7483C38.7772 95.7483 39.3888 95.5973 39.9512 95.2795L49.383 89.9491V102.383C49.383 104.38 51.0025 106 53.0002 106C54.9979 106 56.6175 104.38 56.6175 102.383V89.9491L66.0493 95.2795C66.6116 95.5973 67.2227 95.7483 67.8261 95.7483C69.0878 95.7483 70.3133 95.087 70.9784 93.9102C71.9613 92.1711 71.3483 89.9641 69.6091 88.9811L56.6175 81.6386V59.2648L75.9947 70.4522L75.8568 85.375C75.838 87.3727 77.4426 89.0072 79.4403 89.0255C79.4519 89.026 79.463 89.026 79.4745 89.026C81.4563 89.026 83.0725 87.4281 83.0908 85.442L83.1911 74.6072L93.9589 80.824C94.5285 81.153 95.1507 81.3092 95.7642 81.3092C97.0143 81.3092 98.2301 80.66 98.9001 79.5001C99.8989 77.7701 99.3061 75.5578 97.5757 74.559Z" fill="url(#paint0_linear)"/>
<defs>
<linearGradient id="paint0_linear" x1="99" y1="7.96328e-07" x2="31" y2="106" gradientUnits="userSpaceOnUse">
<stop offset="0.234375" stop-color="#009AD8"/>
<stop offset="1" stop-color="#004D6C"/>
<stop offset="1" stop-color="#004A68"/>
</linearGradient>
</defs>
</svg>
