<svg width="106" height="106" viewBox="0 0 106 106" fill="none" xmlns="http://www.w3.org/2000/svg">
<path d="M8.83343 40.8634H65.3668C66.3438 40.8634 67.1334 39.6246 67.1334 38.0984C67.1334 36.5722 66.3438 35.3334 65.3668 35.3334H8.83343C7.85645 35.3334 7.06683 36.5722 7.06683 38.0984C7.06683 39.6246 7.85645 40.8634 8.83343 40.8634Z" fill="url(#paint0_linear)"/>
<path d="M51.2334 56.5334H12.3666C11.3896 56.5334 10.6 57.7722 10.6 59.2985C10.6 60.8247 11.3896 62.0634 12.3666 62.0634H51.2332C52.2102 62.0634 52.9998 60.8247 52.9998 59.2985C53 57.7722 52.2104 56.5334 51.2334 56.5334Z" fill="url(#paint1_linear)"/>
<path d="M24.7334 48.6985C24.7334 47.1723 23.9438 45.9335 22.9668 45.9335H1.7666C0.789617 45.9335 0 47.1723 0 48.6985C0 50.2247 0.789617 51.4635 1.7666 51.4635H22.9666C23.9436 51.4635 24.7334 50.2247 24.7334 48.6985Z" fill="url(#paint2_linear)"/>
<path d="M19.4334 30.2635H44.1668C45.1438 30.2635 45.9334 29.0247 45.9334 27.4985C45.9334 25.9723 45.1438 24.7335 44.1668 24.7335H19.4334C18.4564 24.7335 17.6668 25.9723 17.6668 27.4985C17.6666 29.0247 18.4564 30.2635 19.4334 30.2635Z" fill="url(#paint3_linear)"/>
<path d="M49.4666 27.4985C49.4666 29.0247 50.2562 30.2635 51.2332 30.2635H90.1C91.077 30.2635 91.8666 29.0247 91.8666 27.4985C91.8666 25.9723 91.077 24.7335 90.1 24.7335H51.2334C50.2564 24.7335 49.4666 25.9723 49.4666 27.4985Z" fill="url(#paint4_linear)"/>
<path d="M72.4334 35.3334C71.4564 35.3334 70.6668 36.5722 70.6668 38.0984C70.6668 39.6246 71.4564 40.8634 72.4334 40.8634H86.5668C87.5438 40.8634 88.3334 39.6246 88.3334 38.0984C88.3334 36.5722 87.5438 35.3334 86.5668 35.3334H72.4334Z" fill="url(#paint5_linear)"/>
<path d="M37.1 19.6634H83.0334C84.0104 19.6634 84.8 18.4246 84.8 16.8984C84.8 15.3722 84.0104 14.1334 83.0334 14.1334H37.1C36.123 14.1334 35.3334 15.3722 35.3334 16.8984C35.3334 18.4246 36.123 19.6634 37.1 19.6634Z" fill="url(#paint6_linear)"/>
<path d="M97.1666 56.5334H58.3C57.323 56.5334 56.5334 57.7722 56.5334 59.2985C56.5334 60.8247 57.323 62.0634 58.3 62.0634H97.1666C98.1436 62.0634 98.9332 60.8247 98.9332 59.2985C98.9334 57.7722 98.1436 56.5334 97.1666 56.5334Z" fill="url(#paint7_linear)"/>
<path d="M86.5666 77.7334H51.2334C50.2564 77.7334 49.4668 78.9722 49.4668 80.4984C49.4668 82.0246 50.2564 83.2634 51.2334 83.2634H86.5668C87.5438 83.2634 88.3334 82.0246 88.3334 80.4984C88.3334 78.9722 87.5436 77.7334 86.5666 77.7334Z" fill="url(#paint8_linear)"/>
<path d="M75.9666 88.3334H30.0334C29.0564 88.3334 28.2668 89.5722 28.2668 91.0984C28.2668 92.6246 29.0564 93.8634 30.0334 93.8634H75.9668C76.9438 93.8634 77.7334 92.6246 77.7334 91.0984C77.7334 89.5722 76.9436 88.3334 75.9666 88.3334Z" fill="url(#paint9_linear)"/>
<path d="M104.233 45.9335H30.0334C29.0564 45.9335 28.2668 47.1723 28.2668 48.6985C28.2668 50.2247 29.0564 51.4635 30.0334 51.4635H104.233C105.21 51.4635 106 50.2247 106 48.6985C106 47.1723 105.21 45.9335 104.233 45.9335Z" fill="url(#paint10_linear)"/>
<path d="M19.4334 67.1334C18.4564 67.1334 17.6668 68.3722 17.6668 69.8984C17.6668 71.4246 18.4564 72.6634 19.4334 72.6634H33.5668C34.5438 72.6634 35.3334 71.4246 35.3334 69.8984C35.3334 68.3722 34.5438 67.1334 33.5668 67.1334H19.4334Z" fill="url(#paint11_linear)"/>
<path d="M45.9334 80.4984C45.9334 78.9722 45.1438 77.7334 44.1668 77.7334H12.3668C11.3898 77.7334 10.6002 78.9722 10.6002 80.4984C10.6002 82.0246 11.3898 83.2634 12.3668 83.2634H44.1668C45.1436 83.2634 45.9334 82.0246 45.9334 80.4984Z" fill="url(#paint12_linear)"/>
<path d="M38.8666 69.8984C38.8666 71.4246 39.6562 72.6634 40.6332 72.6634H79.5C80.477 72.6634 81.2666 71.4246 81.2666 69.8984C81.2666 68.3722 80.477 67.1334 79.5 67.1334H40.6334C39.6564 67.1334 38.8666 68.3722 38.8666 69.8984Z" fill="url(#paint13_linear)"/>
<defs>
<linearGradient id="paint0_linear" x1="37.1001" y1="35.3334" x2="37.1001" y2="40.8634" gradientUnits="userSpaceOnUse">
<stop offset="0.229167" stop-color="#009AD8"/>
<stop offset="1" stop-color="#004D6C"/>
</linearGradient>
<linearGradient id="paint1_linear" x1="31.7999" y1="56.5334" x2="31.7999" y2="62.0634" gradientUnits="userSpaceOnUse">
<stop offset="0.229167" stop-color="#009AD8"/>
<stop offset="1" stop-color="#004D6C"/>
</linearGradient>
<linearGradient id="paint2_linear" x1="12.3667" y1="45.9335" x2="12.3667" y2="51.4635" gradientUnits="userSpaceOnUse">
<stop offset="0.229167" stop-color="#009AD8"/>
<stop offset="1" stop-color="#004D6C"/>
</linearGradient>
<linearGradient id="paint3_linear" x1="31.8001" y1="24.7335" x2="31.8001" y2="30.2635" gradientUnits="userSpaceOnUse">
<stop offset="0.229167" stop-color="#009AD8"/>
<stop offset="1" stop-color="#004D6C"/>
</linearGradient>
<linearGradient id="paint4_linear" x1="70.6666" y1="24.7335" x2="70.6666" y2="30.2635" gradientUnits="userSpaceOnUse">
<stop offset="0.229167" stop-color="#009AD8"/>
<stop offset="1" stop-color="#004D6C"/>
</linearGradient>
<linearGradient id="paint5_linear" x1="79.5001" y1="35.3334" x2="79.5001" y2="40.8634" gradientUnits="userSpaceOnUse">
<stop offset="0.229167" stop-color="#009AD8"/>
<stop offset="1" stop-color="#004D6C"/>
</linearGradient>
<linearGradient id="paint6_linear" x1="60.0667" y1="14.1334" x2="60.0667" y2="19.6634" gradientUnits="userSpaceOnUse">
<stop offset="0.229167" stop-color="#009AD8"/>
<stop offset="1" stop-color="#004D6C"/>
</linearGradient>
<linearGradient id="paint7_linear" x1="77.7333" y1="56.5334" x2="77.7333" y2="62.0634" gradientUnits="userSpaceOnUse">
<stop offset="0.229167" stop-color="#009AD8"/>
<stop offset="1" stop-color="#004D6C"/>
</linearGradient>
<linearGradient id="paint8_linear" x1="68.9001" y1="77.7334" x2="68.9001" y2="83.2634" gradientUnits="userSpaceOnUse">
<stop offset="0.229167" stop-color="#009AD8"/>
<stop offset="1" stop-color="#004D6C"/>
</linearGradient>
<linearGradient id="paint9_linear" x1="53.0001" y1="88.3334" x2="53.0001" y2="93.8634" gradientUnits="userSpaceOnUse">
<stop offset="0.229167" stop-color="#009AD8"/>
<stop offset="1" stop-color="#004D6C"/>
</linearGradient>
<linearGradient id="paint10_linear" x1="67.1334" y1="45.9335" x2="67.1334" y2="51.4635" gradientUnits="userSpaceOnUse">
<stop offset="0.229167" stop-color="#009AD8"/>
<stop offset="1" stop-color="#004D6C"/>
</linearGradient>
<linearGradient id="paint11_linear" x1="26.5001" y1="67.1334" x2="26.5001" y2="72.6634" gradientUnits="userSpaceOnUse">
<stop offset="0.229167" stop-color="#009AD8"/>
<stop offset="1" stop-color="#004D6C"/>
</linearGradient>
<linearGradient id="paint12_linear" x1="28.2668" y1="77.7334" x2="28.2668" y2="83.2634" gradientUnits="userSpaceOnUse">
<stop offset="0.229167" stop-color="#009AD8"/>
<stop offset="1" stop-color="#004D6C"/>
</linearGradient>
<linearGradient id="paint13_linear" x1="60.0666" y1="67.1334" x2="60.0666" y2="72.6634" gradientUnits="userSpaceOnUse">
<stop offset="0.229167" stop-color="#009AD8"/>
<stop offset="1" stop-color="#004D6C"/>
</linearGradient>
</defs>
</svg>
