<svg width="106" height="106" viewBox="0 0 106 106" fill="none" xmlns="http://www.w3.org/2000/svg">
<path d="M48.5833 44.1667H0V35.3334H48.5833C51.0213 35.3334 53 33.3547 53 30.9167C53 28.4787 51.0213 26.5 48.5833 26.5C46.8034 26.5 45.2841 27.5689 44.5862 29.0926L36.8615 24.8703C39.0654 20.6082 43.46 17.6667 48.5833 17.6667C66.1219 17.6667 66.1131 44.1667 48.5833 44.1667ZM79.5 75.0833C79.5 67.7693 73.564 61.8333 66.25 61.8333H0V70.6667H66.25C68.688 70.6667 70.6667 72.6453 70.6667 75.0833C70.6667 77.5213 68.688 79.5 66.25 79.5C64.4701 79.5 62.9507 78.4312 62.2529 76.9074L54.5282 81.1298C56.7321 85.3918 61.1267 88.3333 66.25 88.3333C73.564 88.3333 79.5 82.3973 79.5 75.0833ZM83.9785 41.2738C84.3407 37.948 87.1232 35.3334 90.5417 35.3334C94.1942 35.3334 97.1667 38.3058 97.1667 41.9584C97.1667 45.6109 94.1942 48.5833 90.5417 48.5833H0V57.4167H90.5417C99.0747 57.4167 106 50.4913 106 41.9584C106 33.4254 99.0747 26.5 90.5417 26.5C83.369 26.5 77.3932 31.429 75.6487 38.0584L83.9785 41.2738V41.2738Z" fill="url(#paint0_linear)"/>
<defs>
<linearGradient id="paint0_linear" x1="106" y1="18" x2="24.5" y2="88" gradientUnits="userSpaceOnUse">
<stop stop-color="#009AD8"/>
<stop offset="1" stop-color="#004A68"/>
</linearGradient>
</defs>
</svg>
